<svg xmlns="http://www.w3.org/2000/svg" width="271pt" height="69.083" viewBox="0 0 271 51.813"><g data-name="Warstwa 1"><path d="M130.09 36.867h-1.974V32.43h-5.102v4.438h-1.983V26.863h1.983v4.164h5.102v-4.164h1.975zM135.5 33.137h3.307l-1.654-4.15zm3.863 1.4h-4.42l-.924 2.33h-2.062l4.311-10.003h1.779l4.318 10.003h-2.069zM153.111 36.867h-1.983l-5.086-7.098v7.098h-1.983V26.863h1.983l5.102 7.125v-7.125h1.967z" fill="#fff"/><clipPath id="a"><path transform="matrix(1 0 0 -1 0 51.813)" d="M0 51.812h271V0H0z"/></clipPath><g clip-path="url(#a)"><path d="M157.839 31.756h2.383c.705 0 1.243-.146 1.614-.437.37-.291.557-.711.557-1.261 0-.54-.19-.972-.565-1.295-.376-.323-.893-.49-1.551-.498h-2.438zm0 1.4v3.71h-1.982V26.864h4.365c1.274 0 2.287.29 3.037.874.749.582 1.124 1.353 1.124 2.31 0 .982-.367 1.746-1.101 2.292-.734.545-1.762.818-3.084.818zM168.499 35.466h5.181v1.4h-7.163V26.864h1.982zM178.273 33.137h3.307l-1.654-4.15zm3.863 1.4h-4.42l-.924 2.33h-2.062l4.311-10.003h1.78l4.317 10.003h-2.069zM192.797 34.291c0-.44-.177-.779-.53-1.018-.352-.238-.988-.478-1.908-.72-.92-.243-1.651-.514-2.194-.811-1.04-.573-1.56-1.32-1.56-2.241 0-.806.376-1.47 1.126-1.992.749-.522 1.722-.783 2.919-.783.793 0 1.5.128 2.124.385.62.256 1.11.621 1.465 1.096.355.474.533.999.533 1.576h-1.975c0-.517-.187-.923-.561-1.216-.373-.293-.908-.44-1.602-.44-.648 0-1.15.122-1.51.363a1.157 1.157 0 0 0-.536 1.013c0 .365.193.669.58.913.387.245 1.025.481 1.912.712.889.23 1.602.493 2.14.789.538.295.932.634 1.183 1.017.25.382.376.83.376 1.343 0 .833-.364 1.496-1.092 1.989-.73.493-1.718.739-2.967.739a6.262 6.262 0 0 1-2.277-.402c-.692-.268-1.23-.638-1.614-1.11a2.529 2.529 0 0 1-.576-1.649h1.982c0 .568.215 1.008.643 1.319.429.312 1.043.468 1.842.468.689 0 1.208-.123 1.556-.368.347-.245.52-.57.52-.972M205.165 28.265h-3.558v8.602h-1.967v-8.602h-3.527v-1.402h9.052zM106.707 17.83c3.03 0 5.5 2.93 5.5 6.53 0 3.61-2.47 6.53-5.5 6.53h-10.5v6.94h-7.84V26h13.92c1.89 0 3.42-.86 3.42-1.92s-1.53-1.91-3.42-1.91h-24.58v15.66h-8V6.5h8v11.33h27.33" fill="#fff"/><path d="M95.537 16H88.37V6.5h7.167zM101.377 25.93c.29.05.59.07.91.07h-.9c-.01-.02-.02-.05-.01-.07M102.287 22.17c-.27 0-.52.02-.77.05 0-.02 0-.04.02-.05z" fill="#fff"/><path d="M67.568 21.406a4.5 4.5 0 1 1-9 0 4.5 4.5 0 0 1 9 0" fill="#7abb42"/></g></g></svg>