<?xml version="1.0" encoding="utf-8"?>
<!-- Generator: Adobe Illustrator 26.1.0, SVG Export Plug-In . SVG Version: 6.00 Build 0)  -->
<svg version="1.1" id="Warstwa_1" xmlns="http://www.w3.org/2000/svg" xmlns:xlink="http://www.w3.org/1999/xlink" x="0px" y="0px"
	 viewBox="0 0 150 35" style="enable-background:new 0 0 150 35;" xml:space="preserve">
<style type="text/css">
	.st0{fill:#FFFFFF;}
	.st1{fill:#7ABB42;}
</style>
<g>
	<path class="st0" d="M73.2,32.2h-2v-4.4h-5.1v4.4h-2v-10h2v4.2h5.1v-4.2h2L73.2,32.2z M78.6,28.5h3.3l-1.7-4.1L78.6,28.5z
		 M82.5,29.9h-4.4l-0.9,2.3h-2.1l4.3-10h1.8l4.3,10h-2.1L82.5,29.9z M96.2,32.2h-2l-5.1-7.1v7.1h-2v-10h2l5.1,7.1v-7.1h2V32.2z"/>
	<path class="st0" d="M101,27.1h2.4c0.7,0,1.2-0.1,1.6-0.4c0.4-0.3,0.6-0.7,0.6-1.3c0-0.5-0.2-1-0.6-1.3c-0.4-0.3-0.9-0.5-1.6-0.5
		H101V27.1z M101,28.5v3.7h-2v-10h4.4c1.3,0,2.3,0.3,3,0.9c0.7,0.6,1.1,1.4,1.1,2.3c0,1-0.4,1.7-1.1,2.3c-0.7,0.5-1.8,0.8-3.1,0.8
		L101,28.5z M111.6,30.8h5.2v1.4h-7.2v-10h2V30.8z M121.4,28.5h3.3l-1.7-4.1L121.4,28.5z M125.3,29.9h-4.4l-0.9,2.3h-2.1l4.3-10h1.8
		l4.3,10h-2.1L125.3,29.9z M135.9,29.6c0-0.4-0.2-0.8-0.5-1c-0.4-0.2-1-0.5-1.9-0.7c-0.9-0.2-1.7-0.5-2.2-0.8
		c-1-0.6-1.6-1.3-1.6-2.2c0-0.8,0.4-1.5,1.1-2c0.7-0.5,1.7-0.8,2.9-0.8c0.8,0,1.5,0.1,2.1,0.4c0.6,0.3,1.1,0.6,1.5,1.1
		c0.4,0.5,0.5,1,0.5,1.6h-2c0-0.5-0.2-0.9-0.6-1.2c-0.4-0.3-0.9-0.4-1.6-0.4c-0.6,0-1.1,0.1-1.5,0.4c-0.3,0.2-0.5,0.6-0.5,1
		c0,0.4,0.2,0.7,0.6,0.9c0.4,0.2,1,0.5,1.9,0.7c0.9,0.2,1.6,0.5,2.1,0.8c0.5,0.3,0.9,0.6,1.2,1c0.2,0.4,0.4,0.8,0.4,1.3
		c0,0.8-0.4,1.5-1.1,2c-0.7,0.5-1.7,0.7-3,0.7c-0.8,0-1.5-0.1-2.3-0.4c-0.7-0.3-1.2-0.6-1.6-1.1c-0.4-0.5-0.6-1-0.6-1.6h2
		c0,0.6,0.2,1,0.6,1.3c0.4,0.3,1,0.5,1.8,0.5c0.7,0,1.2-0.1,1.6-0.4C135.8,30.4,135.9,30,135.9,29.6 M148.3,23.6h-3.6v8.6h-2v-8.6
		h-3.5v-1.4h9.1L148.3,23.6z M49.8,13.2c3,0,5.5,2.9,5.5,6.5c0,3.6-2.5,6.5-5.5,6.5H39.3v6.9h-7.8V21.3h13.9c1.9,0,3.4-0.9,3.4-1.9
		s-1.5-1.9-3.4-1.9H20.8v15.7h-8V1.8h8v11.3h27.3"/>
	<path class="st0" d="M38.7,11.3h-7.2V1.8h7.2V11.3z M44.5,21.3c0.3,0,0.6,0.1,0.9,0.1L44.5,21.3C44.5,21.3,44.5,21.3,44.5,21.3
		 M45.4,17.5c-0.3,0-0.5,0-0.8,0c0,0,0,0,0,0H45.4z"/>
	<path class="st1" d="M10.7,16.7c0,2.5-2,4.5-4.5,4.5s-4.5-2-4.5-4.5s2-4.5,4.5-4.5S10.7,14.3,10.7,16.7"/>
</g>
</svg>
