<?xml version="1.0" encoding="utf-8"?>
<!-- Generator: Adobe Illustrator 26.1.0, SVG Export Plug-In . SVG Version: 6.00 Build 0)  -->
<svg version="1.1" id="Warstwa_1" xmlns="http://www.w3.org/2000/svg" xmlns:xlink="http://www.w3.org/1999/xlink" x="0px" y="0px"
	 viewBox="0 0 82.4 67.3" style="enable-background:new 0 0 82.4 67.3;" xml:space="preserve">
<style type="text/css">
	.st0{fill:#FFFFFF;}
	.st1{fill:#FFA900;}
</style>
<g transform="translate(-208.347 -226.679)">
	<g transform="translate(13.482 20.175)">
		<path class="st0" d="M216.6,239h-1.4c-0.1,0-0.1,0-0.2-0.1l-5.6-11.1h-0.2v11.1c0,0.1-0.1,0.2-0.2,0.2h-0.6
			c-0.1,0-0.2-0.1-0.2-0.2v-11.8c0-0.1,0.1-0.2,0.2-0.2h1.4c0.1,0,0.1,0,0.2,0.1l5.6,11.1h0.2v-11.1c0-0.1,0.1-0.2,0.2-0.2h0.6
			c0.1,0,0.2,0.1,0.2,0.2v11.8C216.8,239,216.7,239,216.6,239z"/>
		<path class="st0" d="M223.8,239.2c-3.9,0-4.7-2.4-4.7-6.2c0-3.3,0.6-6.3,4.7-6.3s4.7,3,4.7,6.3
			C228.5,236.9,227.7,239.2,223.8,239.2z M223.8,227.6c-3.1,0-3.7,2-3.7,5.4c0,3.5,0.6,5.3,3.7,5.3c3.2,0,3.7-1.7,3.7-5.3
			C227.5,229.7,226.9,227.6,223.8,227.6z"/>
		<path class="st0" d="M248.5,239h-0.6c-0.1,0-0.1,0-0.2-0.1l-1.1-3.5h-5.4l-1.1,3.5c0,0.1-0.1,0.1-0.2,0.1h-0.6
			c-0.1,0-0.2-0.1-0.2-0.2c0,0,0,0,0-0.1l3.6-11.8c0-0.1,0.1-0.1,0.2-0.1h1.8c0.1,0,0.1,0,0.2,0.1l3.6,11.8c0,0.1,0,0.1,0,0.2
			C248.6,239,248.5,239,248.5,239z M241.5,234.5h4.8l-2.1-6.7h-0.7L241.5,234.5z"/>
		<path class="st0" d="M232.5,239h-1.8c-0.1,0-0.2-0.1-0.2-0.2v-11.8c0-0.1,0.1-0.2,0.2-0.2h0.6c0.1,0,0.2,0.1,0.2,0.2v11.1h0.5
			l7.6-11.2c0,0,0.1-0.1,0.1-0.1h0.7c0.1,0,0.1,0,0.2,0.1c0,0.1,0,0.1,0,0.2l-7.9,11.8C232.6,239,232.5,239,232.5,239z"/>
		<path class="st0" d="M212.7,253.6c-3.6,0-4.4-2.5-4.4-6.2c0-3.9,0.7-6.3,4.4-6.3c1.3,0,2.6,0.2,3.9,0.4c0.1,0,0.1,0.1,0.1,0.2
			l-0.1,0.6c0,0,0,0.1-0.1,0.1c0,0-0.1,0-0.1,0c-1.3-0.2-2.5-0.4-3.8-0.5c-2.9,0-3.4,1.7-3.4,5.4c0,3.5,0.5,5.3,3.4,5.3
			c1.3-0.1,2.6-0.2,3.8-0.5c0,0,0.1,0,0.1,0c0,0,0.1,0.1,0.1,0.1l0.1,0.6c0,0.1-0.1,0.2-0.1,0.2C215.4,253.4,214,253.6,212.7,253.6z
			"/>
		<path class="st0" d="M223.8,253.6c-3.9,0-4.7-2.4-4.7-6.2c0-3.3,0.6-6.3,4.7-6.3s4.7,3,4.7,6.3
			C228.5,251.4,227.7,253.6,223.8,253.6z M223.8,242.1c-3.1,0-3.7,2-3.7,5.4c0,3.5,0.6,5.3,3.7,5.3c3.2,0,3.7-1.7,3.7-5.3
			C227.5,244.1,226.9,242.1,223.8,242.1z"/>
		<path class="st0" d="M235.3,253.5h-4.6c-0.1,0-0.2-0.1-0.2-0.2v-11.8c0-0.1,0.1-0.2,0.2-0.2h4.6c2.6,0,4.1,2.2,4.1,6
			C239.4,251.1,237.9,253.5,235.3,253.5z M231.5,252.5h3.8c2.9,0,3.1-4.1,3.1-5.3c0-1.5-0.3-5-3.1-5h-3.8V252.5z"/>
		<path class="st0" d="M248.5,253.5h-6.9c-0.1,0-0.2-0.1-0.2-0.2c0,0,0,0,0,0v-11.8c0-0.1,0.1-0.2,0.2-0.2h6.9
			c0.1,0,0.2,0.1,0.2,0.2v0.6c0,0.1-0.1,0.2-0.2,0.2h-6.1v4.6h5.1c0.1,0,0.2,0.1,0.2,0.2c0,0,0,0,0,0v0.6c0,0.1-0.1,0.2-0.2,0.2
			c0,0,0,0,0,0h-5.1v4.8h6.1c0.1,0,0.2,0.1,0.2,0.2v0.6C248.6,253.4,248.6,253.5,248.5,253.5C248.5,253.5,248.5,253.5,248.5,253.5z"
			/>
	</g>
	<path class="st1" d="M218,226.7h-9.6v19.2h9.6v-9.6h9.6v-9.6H218z"/>
	<path class="st0" d="M266,274.8v9.6h-9.6v9.6h19.2v-19.2H266z"/>
	<path class="st1" d="M268.4,226.7h-12v9.6h9.6v9.6h9.6v-19.2H268.4z"/>
	<path class="st1" d="M218,284.4v-9.6h-9.6V294h19.2v-9.6H218z"/>
	<path class="st0" d="M286.1,226.7c2.7-0.1,4.9,2,5,4.6s-2,4.9-4.6,5c-2.7,0.1-4.9-2-5-4.6c0-0.1,0-0.1,0-0.2
		c-0.1-2.6,1.9-4.7,4.5-4.8C286,226.7,286,226.7,286.1,226.7 M286.1,235.5c2.2,0.1,4.1-1.6,4.2-3.9c0.1-2.2-1.6-4.1-3.9-4.2
		c-2.2-0.1-4.1,1.6-4.2,3.9c0,0.1,0,0.1,0,0.2c-0.1,2.2,1.6,4,3.8,4C286,235.5,286,235.5,286.1,235.5 M286.2,232.3h-1v1.9h-1v-5.3
		h1.9c1.3,0,2,0.4,2,1.7c0.1,0.7-0.3,1.4-0.9,1.6l1,2h-1.1L286.2,232.3z M285.2,231.5h1c0.6,0,0.9-0.3,0.9-0.9s-0.4-0.9-1.1-0.9
		h-0.8L285.2,231.5z"/>
</g>
</svg>
