<svg xmlns="http://www.w3.org/2000/svg" width="82.39" height="67.293" viewBox="0 0 82.39 67.293"><g transform="translate(-208.347 -226.679)"><g transform="translate(208.347 226.724)"><g transform="translate(13.482 20.175)"><path d="M245.059,281.784h-1.436a.171.171,0,0,1-.154-.1l-5.594-11.148h-.155v11.07a.176.176,0,0,1-.176.175h-.607a.176.176,0,0,1-.175-.175V269.79a.175.175,0,0,1,.175-.174h1.436a.171.171,0,0,1,.155.1l5.576,11.148h.173V269.79a.175.175,0,0,1,.175-.174h.607a.175.175,0,0,1,.174.174v11.819A.175.175,0,0,1,245.059,281.784Z" transform="translate(-236.762 -269.464)"/><path d="M264.081,281.767c-3.913,0-4.7-2.365-4.7-6.185,0-3.266.569-6.287,4.7-6.287s4.7,3.021,4.7,6.287C268.782,279.5,268.013,281.767,264.081,281.767Zm0-11.549c-3.1,0-3.709,1.966-3.709,5.364,0,3.49.573,5.261,3.709,5.261,3.154,0,3.709-1.7,3.709-5.261C267.791,272.271,267.171,270.218,264.081,270.218Z" transform="translate(-248.65 -269.296)"/><path d="M311.078,281.784h-.609a.172.172,0,0,1-.166-.123l-1.061-3.506h-5.38l-1.06,3.506a.178.178,0,0,1-.169.123h-.606a.175.175,0,0,1-.167-.227l3.63-11.819a.173.173,0,0,1,.167-.122h1.79a.173.173,0,0,1,.167.122l3.63,11.819a.171.171,0,0,1-.027.156A.173.173,0,0,1,311.078,281.784Zm-6.923-4.554h4.794l-2.053-6.69h-.688Z" transform="translate(-270.969 -269.464)"/><path d="M285.424,281.784h-1.792a.175.175,0,0,1-.173-.175V269.79a.175.175,0,0,1,.173-.174h.611a.175.175,0,0,1,.175.174v11.069h.493l7.593-11.168a.175.175,0,0,1,.145-.076h.692a.176.176,0,0,1,.154.092.174.174,0,0,1-.01.18l-7.915,11.819A.175.175,0,0,1,285.424,281.784Z" transform="translate(-261.303 -269.464)"/><path d="M241.141,312.17c-3.635,0-4.379-2.473-4.379-6.186,0-3.882.734-6.287,4.379-6.287a26.638,26.638,0,0,1,3.944.442.173.173,0,0,1,.141.187l-.05.592a.177.177,0,0,1-.071.125.174.174,0,0,1-.139.031,26.9,26.9,0,0,0-3.825-.453c-2.88,0-3.387,1.728-3.387,5.363,0,3.492.525,5.263,3.387,5.263a26.264,26.264,0,0,0,3.821-.46.16.16,0,0,1,.138.032.169.169,0,0,1,.069.123l.053.574a.177.177,0,0,1-.143.187A25.6,25.6,0,0,1,241.141,312.17Z" transform="translate(-236.762 -285.273)"/><path d="M264.081,312.17c-3.913,0-4.7-2.368-4.7-6.186,0-3.265.569-6.287,4.7-6.287s4.7,3.022,4.7,6.287C268.782,309.9,268.013,312.17,264.081,312.17Zm0-11.549c-3.1,0-3.709,1.967-3.709,5.363,0,3.492.573,5.263,3.709,5.263,3.154,0,3.709-1.7,3.709-5.263C267.791,302.674,267.171,300.621,264.081,300.621Z" transform="translate(-248.65 -285.273)"/><path d="M288.235,312.185h-4.6a.175.175,0,0,1-.173-.175V300.191a.177.177,0,0,1,.173-.176h4.6c2.621,0,4.126,2.171,4.126,5.951C292.361,309.862,290.817,312.185,288.235,312.185Zm-3.818-.922h3.818c2.908,0,3.132-4.054,3.132-5.3,0-1.511-.3-5.026-3.132-5.026h-3.818Z" transform="translate(-261.303 -285.44)"/><path d="M313.451,312.185h-6.906a.175.175,0,0,1-.176-.175V300.191a.176.176,0,0,1,.176-.176h6.906a.177.177,0,0,1,.175.176v.575a.175.175,0,0,1-.175.175h-6.124V305.5h5.113a.172.172,0,0,1,.172.174v.575a.173.173,0,0,1-.172.175h-5.113v4.835h6.124a.175.175,0,0,1,.175.175v.573A.175.175,0,0,1,313.451,312.185Z" transform="translate(-273.343 -285.44)"/></g><path d="M217.954,226.774h-9.607v19.213h9.607v-9.606h9.608v-9.607Z" transform="translate(-208.347 -226.774)" fill="#ffa900"/><path d="M319.193,328.011v9.606h-9.606v9.608H328.8V328.011Z" transform="translate(-261.551 -279.977)"/><path d="M321.565,226.774H309.587v9.607h9.606v9.606H328.8V226.774Z" transform="translate(-261.551 -226.774)" fill="#ffa900"/><path d="M217.954,337.617v-9.606h-9.607v19.214h19.215v-9.608Z" transform="translate(-208.347 -279.977)" fill="#ffa900"/></g><path d="M367.03,226.679a4.822,4.822,0,1,1-4.644,4.818,4.638,4.638,0,0,1,4.644-4.818m0,8.86a4.055,4.055,0,1,0-3.866-4.042,3.9,3.9,0,0,0,3.866,4.042m.139-3.247H366.13v1.888h-1.024v-5.347h1.942c1.269,0,2.012.424,2.012,1.676a1.517,1.517,0,0,1-.9,1.642l.971,2.029h-1.078Zm-1.059-.829h1.041c.637,0,.9-.264.9-.9s-.351-.9-1.093-.9h-.849Z" transform="translate(-80.952 0)"/></g></svg>