<?xml version="1.0" encoding="utf-8"?>
<!-- Generator: Adobe Illustrator 25.2.0, SVG Export Plug-In . SVG Version: 6.00 Build 0)  -->
<svg version="1.1" id="Warstwa_1" xmlns="http://www.w3.org/2000/svg" xmlns:xlink="http://www.w3.org/1999/xlink" x="0px" y="0px"
	 viewBox="0 0 1000 439.75" style="enable-background:new 0 0 1000 439.75;" xml:space="preserve">
<style type="text/css">
	.st0{fill-rule:evenodd;clip-rule:evenodd;fill:#40403F;}
	.st1{fill-rule:evenodd;clip-rule:evenodd;fill:#F2612E;}
</style>
<path class="st0" d="M650.96,75.03c0-9.89-8.97-17.77-18.86-17.77h-51.23c-9.9,0-20.58,0-23.73,0c0,0,0,0-0.88,0
	c0,0-5.05,5.97-7.98,8.56c-15.15,13.4-19.45,22.28-19.45,37.94c0,0.26,0,0.26,0,0.26c-0.02,0.24-0.02,0.48-0.03,0.53
	c0,0.07,8.1,0.12,18.01,0.12h10.86c9.9,0,12.78,6.18,6.37,13.74l-182.9,215.99c-2.09,2.46-5.73,7.72-6.97,10.98
	c-2.58,6.77-1.49,12.42-1.49,18.86c0,9.53,6.95,18.6,18.01,18.6h235.2c9.9,0,17.99-8.11,17.99-18.01v-11.39c0-9.9-8.09-18-17.99-18
	H464.5c-9.9,0-12.76-6.2-6.36-13.74l180.3-212.39c3.42-4.03,8.78-9.61,11.16-15.84c2.07-5.44,1.36-11.49,1.36-16.12V75.03z"/>
<path class="st0" d="M490.73,104.54c0-0.05-0.02-0.29-0.03-0.53c0,0,0,0,0-0.26c0-15.67-2.25-20.98-15.98-35.83
	c-3.07-3.3-8.25-7.61-11.22-10.67c-0.69,0-9.36,0-19.26,0H390.1c-9.9,0-18.01,8.1-18.01,18.01v11.38c0,9.9,8.11,18.01,18.01,18.01
	h82.61C482.62,104.66,490.73,104.61,490.73,104.54z"/>
<path class="st0" d="M478.56,57.26c2.02,2.07,4.01,4.06,6.04,5.84c15.46,13.69,20.98,23.57,20.98,40.66c0,0.39,0.05,0.61,0.05,1.04
	h8.36c0-0.43,0.03-0.66,0.03-1.04c0-17.09,5.52-26.97,21-40.66c2.02-1.78,4.01-3.77,6.03-5.84H478.56z"/>
<path class="st0" d="M184.76,57.26c-89.37,0-162.1,72.97-162.1,162.65c0,78.01,56.58,145.74,132.5,159.89
	c-1.89-26.57-13.13-41.37-50.24-78.67l-0.03-0.02l-0.53-0.51c-21.52-21.54-33.37-50.19-33.37-80.69
	c0-62.94,51.04-114.14,113.77-114.14c62.75,0,113.79,51.21,113.79,114.14c0,30.48-11.83,59.11-33.33,80.64l-0.48,0.48l-0.05,0.03
	c-37.14,37.29-48.41,52.12-50.32,78.73c75.92-14.14,132.5-81.89,132.5-159.89C346.88,130.22,274.15,57.26,184.76,57.26z"/>
<path class="st1" d="M184.95,292.63c-0.07,0-0.11,0-0.19,0c-0.04,0-0.11,0-0.18,0c-24,0-45.47,3.34-58.38,5.9
	c6.87,6.46,13.5,12.31,19.5,17.62l0.31,0.28c24.03,21.27,28.84,38.05,31.78,64.8c0.78-0.03,3.71,0,6.96,0.02
	c3.28-0.02,6.2-0.05,6.98-0.02c2.94-26.74,7.75-43.53,31.78-64.8l0.3-0.28c6-5.31,12.63-11.17,19.5-17.62
	C230.43,295.97,208.95,292.63,184.95,292.63z"/>
<path class="st0" d="M738.56,120.64c0-8.73,7.14-15.87,15.89-15.87h66.39c8.73,0,23,0.34,31.73,0.77c0,0,7.08,0.34,15.02,2.54
	c7.96,2.22,13.93,5.89,17.91,11.04c5.06,6.25,7.59,14.34,7.59,24.27c0,13.26-4.22,23.47-12.49,30.9
	c-9.89,8.92-24.38,10.52-24.38,10.52c-8.67,1.06-22.87,1.07-31.62,1.07h-70.16c-8.75,0-15.89-7.14-15.89-15.87V120.64z
	 M977.78,282.12v-2.7c-0.22-18.57-5.89-34.11-17-46.56c-11.35-12.75-30.1-17.82-30.1-17.82c-11.81-3.19-21.46-6.04-21.46-6.31
	c0-0.27,7.96-6.55,17.7-13.93c0,0,24.77-18.78,24.77-52.17c0-15.68-2.6-29.02-7.79-40.05c-5.2-11.01-12.73-19.94-22.63-26.77
	c-9.87-6.85-22-11.78-36.42-14.78c-14.4-3-27.05-3.55-27.05-3.55c-12.22-0.53-32.22-0.96-44.43-0.96H707.56
	c-12.22,0-22.23,10-22.23,22.23v281.1c0,12.23,10.01,22.23,22.23,22.23h120.59c12.22,0,32.22-0.53,44.43-1.17
	c0,0,14.16-0.75,29.71-4.61c15.55-3.85,28.92-9.81,40.13-17.85c11.21-8.02,19.9-18.49,26.08-31.39
	C974.52,314.52,977.6,299.56,977.78,282.12z M917.14,306.08c-1.77,4.55-4.5,8.2-8.12,12.09c-5.56,5.95-15.3,11.33-25.95,13.77
	c-10.66,2.44-21.83,2.94-21.83,2.94c-8.72,0.4-23,0.71-31.73,0.71h-75.05c-8.75,0-15.89-7.14-15.89-15.86v-64.02
	c0-8.72,7.14-15.87,15.89-15.87h75.58c8.73,0,22.88-0.21,31.56,0.72c0,0,9.68,0.4,19.84,2.58c11.42,2.45,23.84,8.01,29.57,14.16
	c3.61,3.76,6.23,8.07,7.85,12.95c1.64,4.9,2.44,9.76,2.44,14.64C921.28,299.92,917.14,306.08,917.14,306.08z"/>
</svg>
